<svg xmlns="http://www.w3.org/2000/svg" viewBox="0 0 512 512"><circle cx="256" cy="256" r="256" fill="#8bc34a"/><g fill="#37474f"><path d="M360.352 376.352c-3.2 0-6.4-.928-9.184-2.912-60-42.176-159.808-44.512-227.2-28.8-8.544 2.016-17.216-3.36-19.2-11.968s3.328-17.216 11.968-19.232c74.08-17.152 184.8-14.016 252.8 33.824 7.264 5.088 8.96 15.072 3.904 22.272-3.136 4.448-8.064 6.816-13.088 6.816zM391.648 313.76a15.85 15.85 0 01-9.344-3.008C312.736 260.8 227.232 248.384 113.12 271.68c-8.608 1.696-17.12-3.808-18.88-12.48-1.792-8.64 3.808-17.12 12.448-18.88 123.424-25.184 216.928-11.104 294.304 44.416 7.168 5.152 8.8 15.168 3.648 22.336a15.92 15.92 0 01-12.992 6.688zM422.976 230.272c-3.104 0-6.24-.896-8.992-2.752-88.224-59.872-222.336-60.16-309.152-29.44-8.32 2.88-17.472-1.44-20.416-9.792-2.944-8.32 1.408-17.472 9.76-20.416C188.608 134.496 334.944 135.2 432 201.024c7.328 4.96 9.184 14.912 4.256 22.208a16.115 16.115 0 01-13.28 7.04z"/></g></svg>